<?xml version="1.0" encoding="UTF-8"?>
<svg id="Capa_2" xmlns="http://www.w3.org/2000/svg" version="1.1" viewBox="0 0 512 512">
  <!-- Generator: Adobe Illustrator 29.0.0, SVG Export Plug-In . SVG Version: 2.1.0 Build 186)  -->
  <defs>
    <style>
      .st0 {
        fill: #fff;
      }

      .st1 {
        fill: #4987c6;
      }
    </style>
  </defs>
  <g id="Capa_1-2">
    <path class="st1" d="M511,256c0,140.8-114.1,255-255,255S1,396.9,1,256,115.1,1,256,1s255,114.1,255,255"/>
    <path class="st0" d="M415.7,369.1c-5.8,0-12.8-4.1-21.6-12.6l-32.5-31.4,2.2,11.7c2.3,12.5,1.3,21.5-3.1,26.9-2.6,3.2-6.2,4.8-10.4,4.8-6.4,0-14.1-4.1-22.5-12.1l-161.3-154.3-62,141.6c-7.6,17.3-12,20.8-16.7,20.8s-4.1-.9-5.6-2.6c-2.2-2.6-4-7.5-1.4-25l21.5-144.8c2.8-18.7,12.8-29.9,26.8-29.9s17.1,4.2,25.3,12.1l8.2,7.9c7.4-12.3,18.8-19.4,31.6-19.4s20.2,4.5,29,12.9l119.6,115.3-21.7-114.9c-2.4-13-.5-24.2,5.7-31.5,7.8-9.4,21.4-11.7,36.4-5.8,26.7,10.4,28.9,13.5,28,18.7-.2.9-1.3,5.4-7.6,5.4s-3.7-.3-6.6-.7c-3.6-.7-7.1.8-9.1,3.7-1.7,2.4-2.1,5.5-1,8.3l56.2,164.4c4.4,13,4.8,21.6,1.2,26.7-2,2.8-4.9,4.3-8.5,4.3M415.7,357.3v6-6ZM357.7,304.9l44.7,43.1c6.8,6.5,10.6,8.5,12.3,9,.2-2,0-6.6-3-14.9l-56.2-164.3c-2.3-6.4-1.5-13.4,2.5-19.1,2-2.8,4.5-4.9,7.3-6.5-2-.8-4.1-1.7-6.5-2.6-10.1-3.9-18.4-3.1-22.8,2.3-3.8,4.7-4.9,12.3-3.2,21.7l24.9,131.4h0ZM171.6,190.3l164.5,157.2c8.6,8.2,13.1,8.9,14.3,8.9s.9-.2,1.2-.5c1.4-1.7,2.4-7.2.6-17.1l-5.3-28.2-131.7-126.9c-6.4-6.2-13.6-9.5-20.7-9.5s-17.5,5.8-22.8,16M129.1,173.8c-10.8,0-14.1,13.8-14.9,19.8l-21.5,144.8c-.2,1.2-.3,2.2-.5,3.3.5-.9.9-2,1.4-3l63.7-145.5-11.1-10.5c-6-5.7-12-8.8-17.1-8.8"/>
  </g>
</svg>