<?xml version="1.0" encoding="UTF-8"?>
<svg id="Capa_2" data-name="Capa 2" xmlns="http://www.w3.org/2000/svg" xmlns:xlink="http://www.w3.org/1999/xlink" viewBox="0 0 569.12 107.24">
  <defs>
    <style>
      .cls-1 {
        fill: url(#Degradado_sin_nombre_6);
      }

      .cls-2 {
        fill: #636465;
      }
    </style>
    <linearGradient id="Degradado_sin_nombre_6" data-name="Degradado sin nombre 6" x1="-2753.79" y1="8849.69" x2="-2752.63" y2="8849.69" gradientTransform="translate(374549.11 811681.79) scale(136.01 -91.71)" gradientUnits="userSpaceOnUse">
      <stop offset="0" stop-color="#d1d2ea"/>
      <stop offset="1" stop-color="#4987c6"/>
    </linearGradient>
  </defs>
  <g id="Capa_1-2" data-name="Capa 1">
    <g id="Page-1">
      <g id="Nordic-logo-final">
        <path id="Shape" class="cls-1" d="M154.04,107.24c-2.63,0-5.87-1.88-9.89-5.76l-14.93-14.39,1.01,5.32c1.09,5.73.61,9.87-1.4,12.3-1.19,1.44-2.83,2.2-4.74,2.2-2.97,0-6.43-1.87-10.3-5.57L39.82,30.63,11.42,95.48c-3.48,7.94-5.51,9.54-7.65,9.54-.98,0-1.88-.42-2.55-1.18-1.03-1.19-1.82-3.41-.62-11.47L10.5,25.99c1.27-8.58,5.86-13.7,12.24-13.7,3.79,0,7.8,1.92,11.59,5.54l3.78,3.61c3.38-5.62,8.63-8.91,14.49-8.91,4.69,0,9.27,2.03,13.28,5.89l54.78,52.82-9.97-52.64c-1.12-5.94-.2-11.07,2.61-14.45,3.57-4.31,9.76-5.36,16.66-2.67,12.23,4.76,13.26,6.2,12.82,8.57-.08.41-.61,2.47-3.45,2.47-.72,0-1.72-.12-3.02-.36-1.66-.3-3.26.37-4.21,1.73-.78,1.13-.97,2.53-.49,3.82l25.77,75.36c2.02,5.92,2.2,9.92.55,12.23-.89,1.25-2.27,1.94-3.88,1.94h0ZM154.04,101.78v2.72-2.72h0ZM127.45,77.8l20.47,19.75c3.1,2.99,4.88,3.87,5.65,4.13.11-.91-.05-3.03-1.36-6.85l-25.75-75.3c-1.09-2.95-.67-6.16,1.16-8.77.88-1.26,2.03-2.28,3.34-2.99-.9-.37-1.89-.77-2.99-1.19-4.6-1.78-8.42-1.41-10.48,1.06-1.75,2.12-2.27,5.65-1.45,9.96l11.4,60.21ZM42.19,25.33l75.36,72.07c3.93,3.77,5.99,4.06,6.52,4.06.33,0,.43-.09.54-.21.64-.78,1.1-3.3.25-7.81l-2.44-12.9L62.09,22.35c-2.96-2.85-6.24-4.37-9.48-4.37-4.29.01-8.03,2.67-10.42,7.36ZM22.74,17.73c-4.96,0-6.44,6.33-6.84,9.05L6.01,93.17c-.08.54-.15,1.04-.21,1.51.2-.42.41-.89.62-1.38L35.63,26.61l-5.07-4.85c-2.71-2.58-5.48-4.02-7.81-4.02Z"/>
        <g id="Group">
          <g>
            <path id="Path" class="cls-2" d="M196.56,25.82c0-1.71.37-3.37,2.84-3.37,1.71,0,2.08.42,3.37,1.66l15.68,19.62v-18.39c0-1.57,1.38-3.27,2.98-3.27,1.71,0,3.37,1.71,3.37,3.27v26.67c0,2.08-1.27,2.89-2.51,3.27-1.66,0-2.47-.37-3.84-1.66l-15.68-19.89v18.29c0,2.08-1.29,3.27-2.98,3.27s-3.23-1.18-3.23-3.27v-26.2h0Z"/>
            <path id="Shape-2" data-name="Shape" class="cls-2" d="M285.87,55.77c-8.77.37-17.87-5.45-17.87-17.06s9.1-17.39,17.87-17.39c8.29.42,16.97,6.16,16.97,17.39s-8.68,17.06-16.97,17.06ZM285.35,27.48c-5.31,0-11.09,3.74-11.09,11.23s5.78,11.23,11.09,11.23,11.27-3.79,11.27-11.23-5.82-11.23-11.27-11.23Z"/>
            <path id="Shape-3" data-name="Shape" class="cls-2" d="M352.72,52.21c0,4.12-6.3,4.27-6.3.09v-26.92c0-1.66,1.27-2.89,2.84-2.89h12.61c12.03,0,14.5,16.11,4.46,20.14l6.3,7.68c2.47,3.65-2.47,7.16-5.31,3.55l-7.16-10.23h-7.44v8.57h0ZM352.72,38.19h9.14c6.16,0,6.54-9.95,0-9.95h-9.14v9.95Z"/>
            <path id="Shape-4" data-name="Shape" class="cls-2" d="M419.53,55.29c-1.57,0-3.27-.85-3.27-2.93v-26.91c0-1.71,1.71-2.93,3.27-2.93h10.85c21.66,0,21.18,32.79.43,32.79h-11.28ZM422.52,28.29v21.22h7.86c12.79,0,13.37-21.22,0-21.22h-7.86Z"/>
            <path id="Path-2" data-name="Path" class="cls-2" d="M490.18,25.34c0-3.88,6.26-4.02,6.26,0v27.05c0,3.93-6.26,4.03-6.26,0v-27.05Z"/>
            <path id="Path-3" data-name="Path" class="cls-2" d="M540.09,38.66c0-9.14,5.73-17.01,16.63-17.01,4.12,0,7.39,1.23,10.85,4.22,1.27,1.18,1.41,3.27.14,4.6-1.27,1.13-3.22.99-4.36-.14-1.94-2.03-3.93-2.61-6.63-2.61-7.3,0-10.8,5.17-10.8,10.94s3.46,11.27,10.8,11.27c2.7,0,5.22-1.09,7.39-3.03,1.47-1.13,3.51-.57,4.36.57.76,1.04,1.13,2.79-.53,4.46-3.32,3.08-7.3,3.7-11.23,3.7-11.46-.01-16.63-7.82-16.63-16.97Z"/>
          </g>
          <g>
            <path id="Path-4" data-name="Path" class="cls-2" d="M197.66,77.04c0-1.1,1.78-1.15,1.78,0v7.69c0,1.12-1.78,1.15-1.78,0v-7.69Z"/>
            <path id="Path-5" data-name="Path" class="cls-2" d="M212.25,77.17c0-.49.11-.96.81-.96.49,0,.6.12.96.47l4.47,5.59v-5.23c0-.44.39-.94.85-.94.49,0,.96.49.96.94v7.59c0,.6-.36.82-.71.94-.47,0-.7-.11-1.09-.47l-4.47-5.66v5.2c0,.6-.36.94-.85.94s-.91-.34-.91-.94v-7.47h-.01Z"/>
            <path id="Path-6" data-name="Path" class="cls-2" d="M235.5,77.91h-2.36c-1.17,0-1.17-1.73,0-1.73h6.37c1.2,0,1.2,1.73,0,1.73h-2.23v6.81c0,1.17-1.78,1.19-1.78,0v-6.81h0Z"/>
            <path id="Path-7" data-name="Path" class="cls-2" d="M253.32,85.55c-.47,0-.83-.36-.83-.83v-7.66c0-.49.36-.83.83-.83h4.84c1.24,0,1.22,1.75,0,1.75h-3.88v2.02h3.4c1.2,0,1.2,1.77,0,1.77h-3.4v2.02h4.12c1.23,0,1.32,1.77,0,1.77h-5.07Z"/>
            <path id="Shape-5" data-name="Shape" class="cls-2" d="M273.38,84.67c0,1.17-1.79,1.22-1.79.02v-7.66c0-.47.36-.82.81-.82h3.59c3.43,0,4.13,4.58,1.26,5.73l1.79,2.19c.7,1.04-.7,2.03-1.51,1.01l-2.03-2.91h-2.12v2.44ZM273.38,80.69h2.61c1.75,0,1.86-2.83,0-2.83h-2.61v2.83Z"/>
            <path id="Path-8" data-name="Path" class="cls-2" d="M291.52,77.17c0-.49.11-.96.81-.96.49,0,.6.12.96.47l4.47,5.59v-5.23c0-.44.39-.94.85-.94.49,0,.96.49.96.94v7.59c0,.6-.36.82-.71.94-.47,0-.7-.11-1.09-.47l-4.47-5.66v5.2c0,.6-.36.94-.85.94s-.91-.34-.91-.94v-7.47h-.01Z"/>
            <path id="Shape-6" data-name="Shape" class="cls-2" d="M312.04,85.55c-.43-.25-.7-.72-.43-1.3l3.87-7.57c.36-.71,1.33-.74,1.67,0l3.8,7.57c.55,1.05-1.08,1.88-1.57.83l-.6-1.19h-4.97l-.58,1.19c-.21.47-.71.56-1.19.47ZM317.84,82.14l-1.52-3.33-1.66,3.33h3.18Z"/>
            <path id="Path-9" data-name="Path" class="cls-2" d="M334.35,77.91h-2.36c-1.17,0-1.17-1.73,0-1.73h6.37c1.2,0,1.2,1.73,0,1.73h-2.23v6.81c0,1.17-1.78,1.19-1.78,0v-6.81Z"/>
            <path id="Path-10" data-name="Path" class="cls-2" d="M351.45,77.04c0-1.1,1.78-1.15,1.78,0v7.69c0,1.12-1.78,1.15-1.78,0v-7.69Z"/>
            <path id="Shape-7" data-name="Shape" class="cls-2" d="M370.76,85.69c-2.49.11-5.09-1.56-5.09-4.85s2.58-4.95,5.09-4.95c2.36.12,4.83,1.75,4.83,4.95s-2.47,4.85-4.83,4.85ZM370.62,77.65c-1.51,0-3.16,1.06-3.16,3.19s1.65,3.19,3.16,3.19,3.2-1.08,3.2-3.19-1.66-3.19-3.2-3.19Z"/>
            <path id="Path-11" data-name="Path" class="cls-2" d="M388.06,77.17c0-.49.11-.96.81-.96.49,0,.6.12.96.47l4.47,5.59v-5.23c0-.44.39-.94.85-.94.49,0,.96.49.96.94v7.59c0,.6-.36.82-.71.94-.47,0-.7-.11-1.09-.47l-4.47-5.66v5.2c0,.6-.36.94-.85.94s-.91-.34-.91-.94v-7.47h-.01Z"/>
            <path id="Shape-8" data-name="Shape" class="cls-2" d="M408.58,85.55c-.43-.25-.7-.72-.43-1.3l3.87-7.57c.36-.71,1.33-.74,1.67,0l3.8,7.57c.55,1.05-1.08,1.88-1.57.83l-.6-1.19h-4.97l-.58,1.19c-.21.47-.71.56-1.19.47ZM414.38,82.14l-1.52-3.33-1.66,3.33h3.18Z"/>
            <path id="Path-12" data-name="Path" class="cls-2" d="M429.52,77.04c0-.44.37-.82.85-.82.43,0,.8.37.8.82v6.76h3.67c1.32,0,1.34,1.77,0,1.77h-4.47c-.47,0-.85-.34-.85-.83v-7.69Z"/>
            <g>
              <path id="Path-13" data-name="Path" class="cls-2" d="M457.28,78.34c.32-2.62,4.26-3.09,6.12-1.66.91.74-.06,1.92-.87,1.32-.99-.63-3.26-.92-3.54.47-.36,2.21,5.5.95,5.4,4.54-.09,3.43-5.05,3.51-6.91,1.96-.44-.36-.43-.96-.19-1.32.35-.35.74-.47,1.2-.09,1.11.76,3.95,1.32,4.15-.6-.18-1.99-5.79-.8-5.37-4.62Z"/>
              <path id="Path-14" data-name="Path" class="cls-2" d="M476.41,80.91c0-2.61,1.63-4.84,4.74-4.84,1.17,0,2.1.35,3.09,1.19.36.34.41.94.04,1.31-.36.33-.91.28-1.24-.04-.55-.58-1.12-.74-1.88-.74-2.08,0-3.08,1.47-3.08,3.11s.98,3.2,3.08,3.2c.77,0,1.49-.32,2.1-.87.42-.33.99-.16,1.24.16.21.29.33.8-.15,1.26-.95.88-2.08,1.05-3.19,1.05-3.26.01-4.74-2.22-4.74-4.82Z"/>
              <path id="Path-15" data-name="Path" class="cls-2" d="M497.06,84.8v-7.66c0-.48.35-.83.96-.83.47,0,.82.35.82.83v2.93h4.4v-2.93c0-.48.43-.83.91-.83s.83.35.83.83v7.66c0,.47-.36.83-.83.83s-.91-.36-.91-.83v-2.95h-4.4v2.95c0,.47-.35.83-.82.83-.61.01-.96-.35-.96-.83Z"/>
              <path id="Shape-9" data-name="Shape" class="cls-2" d="M522.4,85.77c-2.49.11-5.09-1.56-5.09-4.85s2.58-4.95,5.09-4.95c2.36.13,4.83,1.75,4.83,4.95s-2.47,4.85-4.83,4.85ZM522.26,77.73c-1.51,0-3.16,1.06-3.16,3.19s1.65,3.19,3.16,3.19,3.2-1.08,3.2-3.19-1.66-3.19-3.2-3.19Z"/>
              <path id="Shape-10" data-name="Shape" class="cls-2" d="M544.43,85.77c-2.49.11-5.09-1.56-5.09-4.85s2.58-4.95,5.09-4.95c2.36.13,4.83,1.75,4.83,4.95s-2.48,4.85-4.83,4.85ZM544.28,77.73c-1.51,0-3.16,1.06-3.16,3.19s1.65,3.19,3.16,3.19,3.2-1.08,3.2-3.19-1.66-3.19-3.2-3.19Z"/>
              <path id="Path-16" data-name="Path" class="cls-2" d="M561.7,77.12c0-.44.37-.82.85-.82.43,0,.8.37.8.82v6.76h3.67c1.32,0,1.34,1.77,0,1.77h-4.47c-.47,0-.85-.34-.85-.82v-7.71Z"/>
            </g>
          </g>
        </g>
      </g>
    </g>
  </g>
</svg>